<svg xmlns="http://www.w3.org/2000/svg" width="702" height="838" viewBox="0 0 702 838" font-family="Segoe UI, Helvetica, Arial, sans-serif">
<rect width="100%" height="100%" fill="#ffffff"/>
<rect x="0" y="0" width="702" height="58" fill="#14213d"/>
<text x="18" y="26" font-size="19.0" font-weight="700" fill="#ffffff">I Formation - Z Left - Y Sweep Left</text>
<text x="18" y="45" font-size="11.5" fill="#a9b4c7">RUN  •  I Formation  •  vs 4-4</text>
<rect x="376.8" y="13" width="307.2" height="31" rx="6" fill="#ffffff" fill-opacity="0.12" stroke="#8593ad" stroke-width="1"/>
<text x="530.4" y="34" text-anchor="middle" font-size="14.5" font-weight="700" fill="#ffffff" letter-spacing="0.5">I Formation Z Left Y Sweep Left</text>
<clipPath id="fieldclip"><rect x="0" y="58" width="702" height="472"/></clipPath>
<g clip-path="url(#fieldclip)"><g transform="translate(-0.0,31.0)">
<rect x="0" y="0" width="702" height="513" fill="#ffffff"/>
<line x1="0" y1="459.0" x2="702" y2="459.0" stroke="#c8cdd6" stroke-width="1"/>
<line x1="0" y1="189.0" x2="702" y2="189.0" stroke="#c8cdd6" stroke-width="1"/>
<line x1="0" y1="324.0" x2="702" y2="324.0" stroke="#3a4150" stroke-width="2" stroke-dasharray="9 6"/>
<ellipse cx="351.0" cy="324.0" rx="9" ry="5.5" fill="#6b4a2b" stroke="#3a2716" stroke-width="1.2"/>
<line x1="244.6" y1="293.2" x2="263.0" y2="311.6" stroke="#9aa2ae" stroke-width="3.6"/><line x1="263.0" y1="293.2" x2="244.6" y2="311.6" stroke="#9aa2ae" stroke-width="3.6"/>
<line x1="304.0" y1="293.2" x2="322.4" y2="311.6" stroke="#9aa2ae" stroke-width="3.6"/><line x1="322.4" y1="293.2" x2="304.0" y2="311.6" stroke="#9aa2ae" stroke-width="3.6"/>
<line x1="379.6" y1="293.2" x2="398.0" y2="311.6" stroke="#9aa2ae" stroke-width="3.6"/><line x1="398.0" y1="293.2" x2="379.6" y2="311.6" stroke="#9aa2ae" stroke-width="3.6"/>
<line x1="439.0" y1="293.2" x2="457.4" y2="311.6" stroke="#9aa2ae" stroke-width="3.6"/><line x1="457.4" y1="293.2" x2="439.0" y2="311.6" stroke="#9aa2ae" stroke-width="3.6"/>
<line x1="217.6" y1="196.0" x2="236.0" y2="214.4" stroke="#9aa2ae" stroke-width="3.6"/><line x1="236.0" y1="196.0" x2="217.6" y2="214.4" stroke="#9aa2ae" stroke-width="3.6"/>
<line x1="274.3" y1="196.0" x2="292.7" y2="214.4" stroke="#9aa2ae" stroke-width="3.6"/><line x1="292.7" y1="196.0" x2="274.3" y2="214.4" stroke="#9aa2ae" stroke-width="3.6"/>
<line x1="409.3" y1="196.0" x2="427.7" y2="214.4" stroke="#9aa2ae" stroke-width="3.6"/><line x1="427.7" y1="196.0" x2="409.3" y2="214.4" stroke="#9aa2ae" stroke-width="3.6"/>
<line x1="466.0" y1="196.0" x2="484.4" y2="214.4" stroke="#9aa2ae" stroke-width="3.6"/><line x1="484.4" y1="196.0" x2="466.0" y2="214.4" stroke="#9aa2ae" stroke-width="3.6"/>
<line x1="85.3" y1="196.0" x2="103.7" y2="214.4" stroke="#9aa2ae" stroke-width="3.6"/><line x1="103.7" y1="196.0" x2="85.3" y2="214.4" stroke="#9aa2ae" stroke-width="3.6"/>
<line x1="598.3" y1="196.0" x2="616.7" y2="214.4" stroke="#9aa2ae" stroke-width="3.6"/><line x1="616.7" y1="196.0" x2="598.3" y2="214.4" stroke="#9aa2ae" stroke-width="3.6"/>
<line x1="341.8" y1="98.8" x2="360.2" y2="117.2" stroke="#9aa2ae" stroke-width="3.6"/><line x1="360.2" y1="98.8" x2="341.8" y2="117.2" stroke="#9aa2ae" stroke-width="3.6"/>
<path d="M237.6,337.5 L248.7,313.5" fill="none" stroke="#14213d" stroke-width="2.4" stroke-linecap="round" stroke-linejoin="round"/>
<line x1="240.3" y1="309.6" x2="257.0" y2="317.3" stroke="#14213d" stroke-width="3.0" stroke-linecap="round"/>
<path d="M275.4,337.5 L282.7,217.4" fill="none" stroke="#14213d" stroke-width="2.4" stroke-linecap="round" stroke-linejoin="round"/>
<line x1="273.5" y1="216.8" x2="291.9" y2="217.9" stroke="#14213d" stroke-width="3.0" stroke-linecap="round"/>
<path d="M313.2,337.5 L313.2,314.6" fill="none" stroke="#14213d" stroke-width="2.4" stroke-linecap="round" stroke-linejoin="round"/>
<line x1="304.0" y1="314.6" x2="322.4" y2="314.6" stroke="#14213d" stroke-width="3.0" stroke-linecap="round"/>
<path d="M351.0,337.5 L413.1,216.0" fill="none" stroke="#14213d" stroke-width="2.4" stroke-linecap="round" stroke-linejoin="round"/>
<line x1="404.9" y1="211.8" x2="421.3" y2="220.2" stroke="#14213d" stroke-width="3.0" stroke-linecap="round"/>
<path d="M388.8,337.5 L388.8,314.6" fill="none" stroke="#14213d" stroke-width="2.4" stroke-linecap="round" stroke-linejoin="round"/>
<line x1="379.6" y1="314.6" x2="398.0" y2="314.6" stroke="#14213d" stroke-width="3.0" stroke-linecap="round"/>
<path d="M426.6,337.5 L470.9,216.5" fill="none" stroke="#14213d" stroke-width="2.4" stroke-linecap="round" stroke-linejoin="round"/>
<line x1="462.3" y1="213.4" x2="479.5" y2="219.7" stroke="#14213d" stroke-width="3.0" stroke-linecap="round"/>
<path d="M464.4,337.5 C454.5,346.1 428.4,379.4 405.0,388.8 C381.6,398.2 362.2,396.0 324.0,394.2 C285.8,392.4 202.5,390.6 175.5,378.0 C148.5,365.4 164.3,343.8 162.0,318.6 C159.8,293.4 162.0,257.4 162.0,226.8 C162.0,196.2 162.0,150.3 162.0,135.0" fill="none" stroke="#b3001b" stroke-width="4.6" stroke-linecap="round" stroke-linejoin="round"/>
<polygon points="162.0,135.0 168.2,148.8 155.8,148.8" fill="#b3001b"/>
<path d="M199.8,364.5 L101.2,215.5" fill="none" stroke="#14213d" stroke-width="2.4" stroke-linecap="round" stroke-linejoin="round"/>
<line x1="93.6" y1="220.5" x2="108.9" y2="210.4" stroke="#14213d" stroke-width="3.0" stroke-linecap="round"/>
<path d="M351.0,364.5 L326.7,386.1 L372.6,391.5 L448.2,386.1" fill="none" stroke="#14213d" stroke-width="2.4" stroke-linecap="round" stroke-linejoin="round" stroke-dasharray="7 5"/>
<polygon points="448.2,386.1 438.2,391.4 437.5,382.2" fill="#14213d"/>
<path d="M351.0,413.1 C329.4,407.7 243.0,399.1 221.4,380.7 C199.8,362.2 219.5,329.9 221.4,302.4 C223.3,274.9 231.1,230.2 233.0,215.7" fill="none" stroke="#14213d" stroke-width="2.4" stroke-linecap="round" stroke-linejoin="round"/>
<line x1="223.9" y1="214.5" x2="242.1" y2="216.9" stroke="#14213d" stroke-width="3.0" stroke-linecap="round"/>
<path d="M351.0,472.5 C329.4,467.1 243.0,468.5 221.4,440.1 C199.8,411.8 219.6,339.7 221.4,302.4 C223.2,265.1 230.2,230.6 231.9,216.3" fill="none" stroke="#14213d" stroke-width="2.4" stroke-linecap="round" stroke-linejoin="round"/>
<line x1="222.8" y1="215.2" x2="241.0" y2="217.4" stroke="#14213d" stroke-width="3.0" stroke-linecap="round"/>

<rect x="224.1" y="324.0" width="27.0" height="27.0" rx="3" fill="#ffffff" stroke="#14213d" stroke-width="2.6"/>
<text x="237.6" y="342.0" text-anchor="middle" font-size="13" font-weight="700" fill="#14213d">X</text>
<rect x="261.9" y="324.0" width="27.0" height="27.0" rx="3" fill="#ffffff" stroke="#14213d" stroke-width="2.6"/>
<text x="275.4" y="342.0" text-anchor="middle" font-size="13" font-weight="700" fill="#14213d">LT</text>
<rect x="299.7" y="324.0" width="27.0" height="27.0" rx="3" fill="#ffffff" stroke="#14213d" stroke-width="2.6"/>
<text x="313.2" y="342.0" text-anchor="middle" font-size="13" font-weight="700" fill="#14213d">LG</text>
<rect x="337.5" y="324.0" width="27.0" height="27.0" rx="3" fill="#ffffff" stroke="#14213d" stroke-width="2.6"/>
<text x="351.0" y="342.0" text-anchor="middle" font-size="13" font-weight="700" fill="#14213d">C</text>
<rect x="375.3" y="324.0" width="27.0" height="27.0" rx="3" fill="#ffffff" stroke="#14213d" stroke-width="2.6"/>
<text x="388.8" y="342.0" text-anchor="middle" font-size="13" font-weight="700" fill="#14213d">RG</text>
<rect x="413.1" y="324.0" width="27.0" height="27.0" rx="3" fill="#ffffff" stroke="#14213d" stroke-width="2.6"/>
<text x="426.6" y="342.0" text-anchor="middle" font-size="13" font-weight="700" fill="#14213d">RT</text>
<rect x="450.9" y="324.0" width="27.0" height="27.0" rx="3" fill="#ffffff" stroke="#b3001b" stroke-width="2.6"/>
<text x="464.4" y="342.0" text-anchor="middle" font-size="13" font-weight="700" fill="#b3001b">Y</text>
<circle cx="199.8" cy="364.5" r="13.5" fill="#ffffff" stroke="#14213d" stroke-width="2.6"/>
<text x="199.8" y="369.0" text-anchor="middle" font-size="13" font-weight="700" fill="#14213d">Z</text>
<circle cx="351.0" cy="364.5" r="13.5" fill="#ffffff" stroke="#14213d" stroke-width="2.6"/>
<text x="351.0" y="369.0" text-anchor="middle" font-size="13" font-weight="700" fill="#14213d">QB</text>
<circle cx="351.0" cy="413.1" r="13.5" fill="#ffffff" stroke="#14213d" stroke-width="2.6"/>
<text x="351.0" y="417.6" text-anchor="middle" font-size="13" font-weight="700" fill="#14213d">FB</text>
<circle cx="351.0" cy="472.5" r="13.5" fill="#ffffff" stroke="#14213d" stroke-width="2.6"/>
<text x="351.0" y="477.0" text-anchor="middle" font-size="13" font-weight="700" fill="#14213d">TB</text>
<text x="253.8" y="284.5" text-anchor="middle" font-size="12.5" fill="#9aa2ae" font-weight="600" stroke="#fff" stroke-width="3" paint-order="stroke">LDE</text>
<text x="313.2" y="284.5" text-anchor="middle" font-size="12.5" fill="#9aa2ae" font-weight="600" stroke="#fff" stroke-width="3" paint-order="stroke">LDG</text>
<text x="388.8" y="284.5" text-anchor="middle" font-size="12.5" fill="#9aa2ae" font-weight="600" stroke="#fff" stroke-width="3" paint-order="stroke">RDG</text>
<text x="448.2" y="284.5" text-anchor="middle" font-size="12.5" fill="#9aa2ae" font-weight="600" stroke="#fff" stroke-width="3" paint-order="stroke">RDE</text>
<text x="226.8" y="187.3" text-anchor="middle" font-size="12.5" fill="#9aa2ae" font-weight="600" stroke="#fff" stroke-width="3" paint-order="stroke">LOLB</text>
<text x="283.5" y="187.3" text-anchor="middle" font-size="12.5" fill="#9aa2ae" font-weight="600" stroke="#fff" stroke-width="3" paint-order="stroke">LILB</text>
<text x="418.5" y="187.3" text-anchor="middle" font-size="12.5" fill="#9aa2ae" font-weight="600" stroke="#fff" stroke-width="3" paint-order="stroke">RILB</text>
<text x="475.2" y="187.3" text-anchor="middle" font-size="12.5" fill="#9aa2ae" font-weight="600" stroke="#fff" stroke-width="3" paint-order="stroke">ROLB</text>
<text x="94.5" y="187.3" text-anchor="middle" font-size="12.5" fill="#9aa2ae" font-weight="600" stroke="#fff" stroke-width="3" paint-order="stroke">LC</text>
<text x="607.5" y="187.3" text-anchor="middle" font-size="12.5" fill="#9aa2ae" font-weight="600" stroke="#fff" stroke-width="3" paint-order="stroke">RC</text>
<text x="351.0" y="90.2" text-anchor="middle" font-size="12.5" fill="#9aa2ae" font-weight="600" stroke="#fff" stroke-width="3" paint-order="stroke">FS</text>
<rect x="624.4" y="35.0" width="69.6" height="52.0" rx="8" fill="#ffffff" stroke="#111318" stroke-width="3"/><text x="659.2" y="75.0" text-anchor="middle" font-size="40" font-weight="800" fill="#111318">#4</text>
</g></g>
<line x1="18" y1="540" x2="684" y2="540" stroke="#c8cdd6" stroke-width="1"/>
<text x="18" y="560" font-size="11" font-weight="700" fill="#5b6472" letter-spacing="1">ASSIGNMENTS</text>
<text x="18" y="578" font-size="12" font-weight="700" fill="#111318">X</text>
<text x="52" y="578" font-size="12" fill="#111318">Defensive end on your inside shoulder. Turn</text>
<text x="52" y="596" font-size="12" fill="#111318">him inside. The ball goes around behind you.</text>
<text x="18" y="612" font-size="12" font-weight="700" fill="#111318">LT</text>
<text x="52" y="612" font-size="12" fill="#111318">D — nothing in your gap and nobody on you. Go</text>
<text x="52" y="630" font-size="12" fill="#111318">downfield and get the left inside linebacker.</text>
<text x="18" y="646" font-size="12" font-weight="700" fill="#111318">LG</text>
<text x="52" y="646" font-size="12" fill="#111318">O — your gap is empty, so take the defensive</text>
<text x="52" y="664" font-size="12" fill="#111318">guard on you. Hands inside, pads under his,</text>
<text x="52" y="680" font-size="12" fill="#111318">drive him back.</text>
<text x="18" y="698" font-size="12" font-weight="700" fill="#111318">C</text>
<text x="52" y="698" font-size="12" fill="#111318">D — nothing in your gap and nobody on you. Go</text>
<text x="52" y="714" font-size="12" fill="#111318">downfield and get the right inside linebacker.</text>
<text x="18" y="732" font-size="12" font-weight="700" fill="#111318">RG</text>
<text x="52" y="732" font-size="12" fill="#111318">O — your gap is empty, so take the defensive</text>
<text x="52" y="748" font-size="12" fill="#111318">guard on you. Hands inside, pads under his,</text>
<text x="52" y="766" font-size="12" fill="#111318">drive him back.</text>
<text x="18" y="782" font-size="12" font-weight="700" fill="#111318">RT</text>
<text x="52" y="782" font-size="12" fill="#111318">D — nothing in your gap and nobody on you. Go</text>
<text x="52" y="800" font-size="12" fill="#111318">downfield and get the right outside</text>
<text x="52" y="816" font-size="12" fill="#111318">linebacker.</text>
<text x="351" y="578" font-size="12" font-weight="700" fill="#111318">Y</text>
<text x="385" y="578" font-size="12" fill="#111318">Stay down in your stance — no motion. At the</text>
<text x="385" y="596" font-size="12" fill="#111318">snap run flat behind the quarterback, take the</text>
<text x="385" y="612" font-size="12" fill="#111318">handoff at full speed and get to the left</text>
<text x="385" y="630" font-size="12" fill="#111318">edge. Turn up outside the fullback.</text>
<text x="351" y="646" font-size="12" font-weight="700" fill="#111318">Z</text>
<text x="385" y="646" font-size="12" fill="#111318">Run at the corner and screen him off. Stay in</text>
<text x="385" y="664" font-size="12" fill="#111318">his way.</text>
<text x="351" y="680" font-size="12" font-weight="700" fill="#111318">QB</text>
<text x="385" y="680" font-size="12" fill="#111318">Open left and hand the ball to the right tight</text>
<text x="385" y="698" font-size="12" fill="#111318">end as he comes across behind you, then fake a</text>
<text x="385" y="714" font-size="12" fill="#111318">run to the right.</text>
<text x="351" y="732" font-size="12" font-weight="700" fill="#111318">FB</text>
<text x="385" y="732" font-size="12" fill="#111318">Bubble out around our end, then double team</text>
<text x="385" y="748" font-size="12" fill="#111318">the linebacker with the tailback.</text>
<text x="351" y="766" font-size="12" font-weight="700" fill="#111318">TB</text>
<text x="385" y="766" font-size="12" fill="#111318">Bubble out around our end, then double team</text>
<text x="385" y="782" font-size="12" fill="#111318">the linebacker with the fullback.</text>
</svg>