<svg xmlns="http://www.w3.org/2000/svg" width="551" height="251" viewBox="76 140 551 251" font-family="Segoe UI, Helvetica, Arial, sans-serif" role="img">
<title>Sneak — Tight 0 Sneak</title>
<rect x="0" y="0" width="702" height="446" fill="#ffffff"/>
<line x1="0" y1="391.5" x2="702" y2="391.5" stroke="#c8cdd6" stroke-width="1"/>
<line x1="0" y1="121.5" x2="702" y2="121.5" stroke="#c8cdd6" stroke-width="1"/>
<line x1="0" y1="256.5" x2="702" y2="256.5" stroke="#3a4150" stroke-width="2" stroke-dasharray="9 6"/>
<ellipse cx="351.0" cy="256.5" rx="9" ry="5.5" fill="#6b4a2b" stroke="#3a2716" stroke-width="1.2"/>
<line x1="225.2" y1="227.9" x2="239.2" y2="241.9" stroke="#9aa2ae" stroke-width="3"/><line x1="239.2" y1="227.9" x2="225.2" y2="241.9" stroke="#9aa2ae" stroke-width="3"/>
<text x="232.2" y="219.6" text-anchor="middle" font-size="10" fill="#9aa2ae" font-weight="600">E</text>
<line x1="279.2" y1="227.9" x2="293.2" y2="241.9" stroke="#9aa2ae" stroke-width="3"/><line x1="293.2" y1="227.9" x2="279.2" y2="241.9" stroke="#9aa2ae" stroke-width="3"/>
<text x="286.2" y="219.6" text-anchor="middle" font-size="10" fill="#9aa2ae" font-weight="600">T</text>
<line x1="311.6" y1="227.9" x2="325.6" y2="241.9" stroke="#9aa2ae" stroke-width="3"/><line x1="325.6" y1="227.9" x2="311.6" y2="241.9" stroke="#9aa2ae" stroke-width="3"/>
<text x="318.6" y="219.6" text-anchor="middle" font-size="10" fill="#9aa2ae" font-weight="600">G</text>
<line x1="376.4" y1="227.9" x2="390.4" y2="241.9" stroke="#9aa2ae" stroke-width="3"/><line x1="390.4" y1="227.9" x2="376.4" y2="241.9" stroke="#9aa2ae" stroke-width="3"/>
<text x="383.4" y="219.6" text-anchor="middle" font-size="10" fill="#9aa2ae" font-weight="600">G</text>
<line x1="408.8" y1="227.9" x2="422.8" y2="241.9" stroke="#9aa2ae" stroke-width="3"/><line x1="422.8" y1="227.9" x2="408.8" y2="241.9" stroke="#9aa2ae" stroke-width="3"/>
<text x="415.8" y="219.6" text-anchor="middle" font-size="10" fill="#9aa2ae" font-weight="600">T</text>
<line x1="462.8" y1="227.9" x2="476.8" y2="241.9" stroke="#9aa2ae" stroke-width="3"/><line x1="476.8" y1="227.9" x2="462.8" y2="241.9" stroke="#9aa2ae" stroke-width="3"/>
<text x="469.8" y="219.6" text-anchor="middle" font-size="10" fill="#9aa2ae" font-weight="600">E</text>
<line x1="273.8" y1="179.3" x2="287.8" y2="193.3" stroke="#9aa2ae" stroke-width="3"/><line x1="287.8" y1="179.3" x2="273.8" y2="193.3" stroke="#9aa2ae" stroke-width="3"/>
<text x="280.8" y="171.0" text-anchor="middle" font-size="10" fill="#9aa2ae" font-weight="600">W</text>
<line x1="344.0" y1="179.3" x2="358.0" y2="193.3" stroke="#9aa2ae" stroke-width="3"/><line x1="358.0" y1="179.3" x2="344.0" y2="193.3" stroke="#9aa2ae" stroke-width="3"/>
<text x="351.0" y="171.0" text-anchor="middle" font-size="10" fill="#9aa2ae" font-weight="600">M</text>
<line x1="414.2" y1="179.3" x2="428.2" y2="193.3" stroke="#9aa2ae" stroke-width="3"/><line x1="428.2" y1="179.3" x2="414.2" y2="193.3" stroke="#9aa2ae" stroke-width="3"/>
<text x="421.2" y="171.0" text-anchor="middle" font-size="10" fill="#9aa2ae" font-weight="600">S</text>
<line x1="101.0" y1="168.5" x2="115.0" y2="182.5" stroke="#9aa2ae" stroke-width="3"/><line x1="115.0" y1="168.5" x2="101.0" y2="182.5" stroke="#9aa2ae" stroke-width="3"/>
<text x="108.0" y="160.2" text-anchor="middle" font-size="10" fill="#9aa2ae" font-weight="600">C</text>
<line x1="587.0" y1="168.5" x2="601.0" y2="182.5" stroke="#9aa2ae" stroke-width="3"/><line x1="601.0" y1="168.5" x2="587.0" y2="182.5" stroke="#9aa2ae" stroke-width="3"/>
<text x="594.0" y="160.2" text-anchor="middle" font-size="10" fill="#9aa2ae" font-weight="600">C</text>
<path d="M253.8,270.0 L261.9,243.0" fill="none" stroke="#14213d" stroke-width="2.4" stroke-linecap="round" stroke-linejoin="round"/>
<line x1="253.1" y1="240.4" x2="270.7" y2="245.6" stroke="#14213d" stroke-width="3.0" stroke-linecap="round"/>
<path d="M286.2,270.0 L294.3,243.0" fill="none" stroke="#14213d" stroke-width="2.4" stroke-linecap="round" stroke-linejoin="round"/>
<line x1="285.5" y1="240.4" x2="303.1" y2="245.6" stroke="#14213d" stroke-width="3.0" stroke-linecap="round"/>
<path d="M318.6,270.0 L324.0,240.3" fill="none" stroke="#14213d" stroke-width="2.4" stroke-linecap="round" stroke-linejoin="round"/>
<line x1="315.0" y1="238.7" x2="333.0" y2="241.9" stroke="#14213d" stroke-width="3.0" stroke-linecap="round"/>
<path d="M351.0,270.0 L351.0,237.6" fill="none" stroke="#14213d" stroke-width="2.4" stroke-linecap="round" stroke-linejoin="round"/>
<line x1="341.8" y1="237.6" x2="360.2" y2="237.6" stroke="#14213d" stroke-width="3.0" stroke-linecap="round"/>
<path d="M383.4,270.0 L378.0,240.3" fill="none" stroke="#14213d" stroke-width="2.4" stroke-linecap="round" stroke-linejoin="round"/>
<line x1="369.0" y1="241.9" x2="387.0" y2="238.7" stroke="#14213d" stroke-width="3.0" stroke-linecap="round"/>
<path d="M415.8,270.0 L407.7,243.0" fill="none" stroke="#14213d" stroke-width="2.4" stroke-linecap="round" stroke-linejoin="round"/>
<line x1="398.9" y1="245.6" x2="416.5" y2="240.4" stroke="#14213d" stroke-width="3.0" stroke-linecap="round"/>
<path d="M448.2,270.0 L440.1,243.0" fill="none" stroke="#14213d" stroke-width="2.4" stroke-linecap="round" stroke-linejoin="round"/>
<line x1="431.3" y1="245.6" x2="448.9" y2="240.4" stroke="#14213d" stroke-width="3.0" stroke-linecap="round"/>
<path d="M216.0,299.7 L240.3,267.3" fill="none" stroke="#14213d" stroke-width="2.4" stroke-linecap="round" stroke-linejoin="round"/>
<line x1="233.0" y1="261.8" x2="247.6" y2="272.8" stroke="#14213d" stroke-width="3.0" stroke-linecap="round"/>
<path d="M486.0,299.7 L461.7,267.3" fill="none" stroke="#14213d" stroke-width="2.4" stroke-linecap="round" stroke-linejoin="round"/>
<line x1="454.4" y1="272.8" x2="469.0" y2="261.8" stroke="#14213d" stroke-width="3.0" stroke-linecap="round"/>
<path d="M351.0,297.0 L351.0,253.8 L351.0,205.2" fill="none" stroke="#b3001b" stroke-width="3.2" stroke-linecap="round" stroke-linejoin="round"/>
<polygon points="351.0,205.2 355.6,215.6 346.4,215.6" fill="#b3001b"/>
<path d="M351.0,364.5 L360.4,294.3 L360.4,256.5" fill="none" stroke="#14213d" stroke-width="2.4" stroke-linecap="round" stroke-linejoin="round"/>
<line x1="351.3" y1="256.5" x2="369.6" y2="256.5" stroke="#14213d" stroke-width="3.0" stroke-linecap="round"/>
<rect x="241.9" y="258.1" width="23.8" height="23.8" rx="3" fill="#ffffff" stroke="#14213d" stroke-width="2.4"/>
<text x="253.8" y="274.0" text-anchor="middle" font-size="11.5" font-weight="700" fill="#14213d">LE</text>
<rect x="274.3" y="258.1" width="23.8" height="23.8" rx="3" fill="#ffffff" stroke="#14213d" stroke-width="2.4"/>
<text x="286.2" y="274.0" text-anchor="middle" font-size="11.5" font-weight="700" fill="#14213d">LT</text>
<rect x="306.7" y="258.1" width="23.8" height="23.8" rx="3" fill="#ffffff" stroke="#14213d" stroke-width="2.4"/>
<text x="318.6" y="274.0" text-anchor="middle" font-size="11.5" font-weight="700" fill="#14213d">LG</text>
<rect x="339.1" y="258.1" width="23.8" height="23.8" rx="3" fill="#ffffff" stroke="#14213d" stroke-width="2.4"/>
<text x="351.0" y="274.0" text-anchor="middle" font-size="11.5" font-weight="700" fill="#14213d">C</text>
<rect x="371.5" y="258.1" width="23.8" height="23.8" rx="3" fill="#ffffff" stroke="#14213d" stroke-width="2.4"/>
<text x="383.4" y="274.0" text-anchor="middle" font-size="11.5" font-weight="700" fill="#14213d">RG</text>
<rect x="403.9" y="258.1" width="23.8" height="23.8" rx="3" fill="#ffffff" stroke="#14213d" stroke-width="2.4"/>
<text x="415.8" y="274.0" text-anchor="middle" font-size="11.5" font-weight="700" fill="#14213d">RT</text>
<rect x="436.3" y="258.1" width="23.8" height="23.8" rx="3" fill="#ffffff" stroke="#14213d" stroke-width="2.4"/>
<text x="448.2" y="274.0" text-anchor="middle" font-size="11.5" font-weight="700" fill="#14213d">RE</text>
<circle cx="216.0" cy="299.7" r="12.4" fill="#ffffff" stroke="#14213d" stroke-width="2.4"/>
<text x="216.0" y="303.7" text-anchor="middle" font-size="11.5" font-weight="700" fill="#14213d">LW</text>
<circle cx="486.0" cy="299.7" r="12.4" fill="#ffffff" stroke="#14213d" stroke-width="2.4"/>
<text x="486.0" y="303.7" text-anchor="middle" font-size="11.5" font-weight="700" fill="#14213d">RW</text>
<circle cx="351.0" cy="297.0" r="12.4" fill="#ffffff" stroke="#b3001b" stroke-width="2.4"/>
<text x="351.0" y="301.0" text-anchor="middle" font-size="11.5" font-weight="700" fill="#b3001b">QB</text>
<circle cx="351.0" cy="364.5" r="12.4" fill="#ffffff" stroke="#14213d" stroke-width="2.4"/>
<text x="351.0" y="368.5" text-anchor="middle" font-size="11.5" font-weight="700" fill="#14213d">FB</text>
</svg>