<svg xmlns="http://www.w3.org/2000/svg" width="702" height="472" viewBox="0 27 702 472" font-family="Segoe UI, Helvetica, Arial, sans-serif" role="img">
<title>Wishbone - 24 Handoff — Wishbone 24 Handoff vs 4-4</title>
<rect x="0" y="0" width="702" height="513" fill="#ffffff"/>
<line x1="0" y1="459.0" x2="702" y2="459.0" stroke="#c8cdd6" stroke-width="1"/>
<line x1="0" y1="189.0" x2="702" y2="189.0" stroke="#c8cdd6" stroke-width="1"/>
<line x1="0" y1="324.0" x2="702" y2="324.0" stroke="#3a4150" stroke-width="2" stroke-dasharray="9 6"/>
<ellipse cx="351.0" cy="324.0" rx="9" ry="5.5" fill="#6b4a2b" stroke="#3a2716" stroke-width="1.2"/>
<line x1="244.6" y1="293.2" x2="263.0" y2="311.6" stroke="#9aa2ae" stroke-width="3.6"/><line x1="263.0" y1="293.2" x2="244.6" y2="311.6" stroke="#9aa2ae" stroke-width="3.6"/>
<text x="253.8" y="284.5" text-anchor="middle" font-size="12.5" fill="#9aa2ae" font-weight="600">LDE</text>
<line x1="304.0" y1="293.2" x2="322.4" y2="311.6" stroke="#9aa2ae" stroke-width="3.6"/><line x1="322.4" y1="293.2" x2="304.0" y2="311.6" stroke="#9aa2ae" stroke-width="3.6"/>
<text x="313.2" y="284.5" text-anchor="middle" font-size="12.5" fill="#9aa2ae" font-weight="600">LDG</text>
<line x1="379.6" y1="293.2" x2="398.0" y2="311.6" stroke="#9aa2ae" stroke-width="3.6"/><line x1="398.0" y1="293.2" x2="379.6" y2="311.6" stroke="#9aa2ae" stroke-width="3.6"/>
<text x="388.8" y="284.5" text-anchor="middle" font-size="12.5" fill="#9aa2ae" font-weight="600">RDG</text>
<line x1="439.0" y1="293.2" x2="457.4" y2="311.6" stroke="#9aa2ae" stroke-width="3.6"/><line x1="457.4" y1="293.2" x2="439.0" y2="311.6" stroke="#9aa2ae" stroke-width="3.6"/>
<text x="448.2" y="284.5" text-anchor="middle" font-size="12.5" fill="#9aa2ae" font-weight="600">RDE</text>
<line x1="217.6" y1="196.0" x2="236.0" y2="214.4" stroke="#9aa2ae" stroke-width="3.6"/><line x1="236.0" y1="196.0" x2="217.6" y2="214.4" stroke="#9aa2ae" stroke-width="3.6"/>
<text x="226.8" y="187.3" text-anchor="middle" font-size="12.5" fill="#9aa2ae" font-weight="600">LOLB</text>
<line x1="274.3" y1="196.0" x2="292.7" y2="214.4" stroke="#9aa2ae" stroke-width="3.6"/><line x1="292.7" y1="196.0" x2="274.3" y2="214.4" stroke="#9aa2ae" stroke-width="3.6"/>
<text x="283.5" y="187.3" text-anchor="middle" font-size="12.5" fill="#9aa2ae" font-weight="600">LILB</text>
<line x1="409.3" y1="196.0" x2="427.7" y2="214.4" stroke="#9aa2ae" stroke-width="3.6"/><line x1="427.7" y1="196.0" x2="409.3" y2="214.4" stroke="#9aa2ae" stroke-width="3.6"/>
<text x="418.5" y="187.3" text-anchor="middle" font-size="12.5" fill="#9aa2ae" font-weight="600">RILB</text>
<line x1="466.0" y1="196.0" x2="484.4" y2="214.4" stroke="#9aa2ae" stroke-width="3.6"/><line x1="484.4" y1="196.0" x2="466.0" y2="214.4" stroke="#9aa2ae" stroke-width="3.6"/>
<text x="475.2" y="187.3" text-anchor="middle" font-size="12.5" fill="#9aa2ae" font-weight="600">ROLB</text>
<line x1="85.3" y1="196.0" x2="103.7" y2="214.4" stroke="#9aa2ae" stroke-width="3.6"/><line x1="103.7" y1="196.0" x2="85.3" y2="214.4" stroke="#9aa2ae" stroke-width="3.6"/>
<text x="94.5" y="187.3" text-anchor="middle" font-size="12.5" fill="#9aa2ae" font-weight="600">LC</text>
<line x1="598.3" y1="196.0" x2="616.7" y2="214.4" stroke="#9aa2ae" stroke-width="3.6"/><line x1="616.7" y1="196.0" x2="598.3" y2="214.4" stroke="#9aa2ae" stroke-width="3.6"/>
<text x="607.5" y="187.3" text-anchor="middle" font-size="12.5" fill="#9aa2ae" font-weight="600">RC</text>
<line x1="341.8" y1="98.8" x2="360.2" y2="117.2" stroke="#9aa2ae" stroke-width="3.6"/><line x1="360.2" y1="98.8" x2="341.8" y2="117.2" stroke="#9aa2ae" stroke-width="3.6"/>
<text x="351.0" y="90.2" text-anchor="middle" font-size="12.5" fill="#9aa2ae" font-weight="600">FS</text>
<path d="M237.6,337.5 L248.7,313.5" fill="none" stroke="#14213d" stroke-width="2.4" stroke-linecap="round" stroke-linejoin="round"/>
<line x1="240.3" y1="309.6" x2="257.0" y2="317.3" stroke="#14213d" stroke-width="3.0" stroke-linecap="round"/>
<path d="M275.4,337.5 L304.3,310.8" fill="none" stroke="#14213d" stroke-width="2.4" stroke-linecap="round" stroke-linejoin="round"/>
<line x1="298.1" y1="304.0" x2="310.5" y2="317.5" stroke="#14213d" stroke-width="3.0" stroke-linecap="round"/>
<path d="M313.2,337.5 L313.2,314.6" fill="none" stroke="#14213d" stroke-width="2.4" stroke-linecap="round" stroke-linejoin="round"/>
<line x1="304.0" y1="314.6" x2="322.4" y2="314.6" stroke="#14213d" stroke-width="3.0" stroke-linecap="round"/>
<path d="M351.0,337.5 L413.1,216.0" fill="none" stroke="#14213d" stroke-width="2.4" stroke-linecap="round" stroke-linejoin="round"/>
<line x1="404.9" y1="211.8" x2="421.3" y2="220.2" stroke="#14213d" stroke-width="3.0" stroke-linecap="round"/>
<path d="M388.8,337.5 L388.8,314.6" fill="none" stroke="#14213d" stroke-width="2.4" stroke-linecap="round" stroke-linejoin="round"/>
<line x1="379.6" y1="314.6" x2="398.0" y2="314.6" stroke="#14213d" stroke-width="3.0" stroke-linecap="round"/>
<path d="M426.6,337.5 L441.7,312.7" fill="none" stroke="#14213d" stroke-width="2.4" stroke-linecap="round" stroke-linejoin="round"/>
<line x1="433.9" y1="307.9" x2="449.6" y2="317.4" stroke="#14213d" stroke-width="3.0" stroke-linecap="round"/>
<path d="M464.4,337.5 L453.3,313.5" fill="none" stroke="#14213d" stroke-width="2.4" stroke-linecap="round" stroke-linejoin="round"/>
<line x1="445.0" y1="317.3" x2="461.7" y2="309.6" stroke="#14213d" stroke-width="3.0" stroke-linecap="round"/>
<path d="M351.0,364.5 L329.4,375.3 L291.6,391.5 L253.8,402.3" fill="none" stroke="#14213d" stroke-width="2.4" stroke-linecap="round" stroke-linejoin="round" stroke-dasharray="7 5"/>
<polygon points="253.8,402.3 262.5,395.0 265.0,403.9" fill="#14213d"/>
<path d="M351.0,413.1 C356.4,405.0 375.3,378.9 383.4,364.5 C391.5,350.1 395.6,341.1 399.6,326.7 C403.7,312.3 405.9,299.7 407.7,278.1 C409.5,256.5 409.5,224.1 410.4,197.1 C411.3,170.1 412.7,129.6 413.1,116.1" fill="none" stroke="#b3001b" stroke-width="4.6" stroke-linecap="round" stroke-linejoin="round"/>
<polygon points="413.1,116.1 418.8,130.1 406.5,129.7" fill="#b3001b"/>
<path d="M291.6,445.5 L243.0,440.1 L140.4,429.3" fill="none" stroke="#14213d" stroke-width="2.4" stroke-linecap="round" stroke-linejoin="round" stroke-dasharray="7 5"/>
<polygon points="140.4,429.3 151.2,425.8 150.2,435.0" fill="#14213d"/>
<path d="M410.4,445.5 L414.2,313.2 L407.7,259.2" fill="none" stroke="#14213d" stroke-width="2.4" stroke-linecap="round" stroke-linejoin="round"/>
<line x1="398.6" y1="260.3" x2="416.8" y2="258.1" stroke="#14213d" stroke-width="3.0" stroke-linecap="round"/>

<rect x="224.1" y="324.0" width="27.0" height="27.0" rx="3" fill="#ffffff" stroke="#14213d" stroke-width="2.6"/>
<text x="237.6" y="342.0" text-anchor="middle" font-size="13" font-weight="700" fill="#14213d">X</text>
<rect x="261.9" y="324.0" width="27.0" height="27.0" rx="3" fill="#ffffff" stroke="#14213d" stroke-width="2.6"/>
<text x="275.4" y="342.0" text-anchor="middle" font-size="13" font-weight="700" fill="#14213d">LT</text>
<rect x="299.7" y="324.0" width="27.0" height="27.0" rx="3" fill="#ffffff" stroke="#14213d" stroke-width="2.6"/>
<text x="313.2" y="342.0" text-anchor="middle" font-size="13" font-weight="700" fill="#14213d">LG</text>
<rect x="337.5" y="324.0" width="27.0" height="27.0" rx="3" fill="#ffffff" stroke="#14213d" stroke-width="2.6"/>
<text x="351.0" y="342.0" text-anchor="middle" font-size="13" font-weight="700" fill="#14213d">C</text>
<rect x="375.3" y="324.0" width="27.0" height="27.0" rx="3" fill="#ffffff" stroke="#14213d" stroke-width="2.6"/>
<text x="388.8" y="342.0" text-anchor="middle" font-size="13" font-weight="700" fill="#14213d">RG</text>
<rect x="413.1" y="324.0" width="27.0" height="27.0" rx="3" fill="#ffffff" stroke="#14213d" stroke-width="2.6"/>
<text x="426.6" y="342.0" text-anchor="middle" font-size="13" font-weight="700" fill="#14213d">RT</text>
<rect x="450.9" y="324.0" width="27.0" height="27.0" rx="3" fill="#ffffff" stroke="#14213d" stroke-width="2.6"/>
<text x="464.4" y="342.0" text-anchor="middle" font-size="13" font-weight="700" fill="#14213d">Y</text>
<circle cx="351.0" cy="364.5" r="13.5" fill="#ffffff" stroke="#14213d" stroke-width="2.6"/>
<text x="351.0" y="369.0" text-anchor="middle" font-size="13" font-weight="700" fill="#14213d">QB</text>
<circle cx="351.0" cy="413.1" r="13.5" fill="#ffffff" stroke="#b3001b" stroke-width="2.6"/>
<text x="351.0" y="417.6" text-anchor="middle" font-size="13" font-weight="700" fill="#b3001b">FB</text>
<circle cx="291.6" cy="445.5" r="13.5" fill="#ffffff" stroke="#14213d" stroke-width="2.6"/>
<text x="291.6" y="450.0" text-anchor="middle" font-size="13" font-weight="700" fill="#14213d">LH</text>
<circle cx="410.4" cy="445.5" r="13.5" fill="#ffffff" stroke="#14213d" stroke-width="2.6"/>
<text x="410.4" y="450.0" text-anchor="middle" font-size="13" font-weight="700" fill="#14213d">RH</text>
<rect x="599.6" y="35.0" width="94.4" height="52.0" rx="8" fill="#ffffff" stroke="#111318" stroke-width="3"/><text x="646.8" y="75.0" text-anchor="middle" font-size="40" font-weight="800" fill="#111318">#55</text>
<text x="12.0" y="45.0" font-size="4.3" font-weight="700" fill="#111318">Wishbone - 24 Handoff</text>
</svg>