<svg xmlns="http://www.w3.org/2000/svg" width="702" height="838" viewBox="0 0 702 838" font-family="Segoe UI, Helvetica, Arial, sans-serif">
<rect width="100%" height="100%" fill="#ffffff"/>
<rect x="0" y="0" width="702" height="58" fill="#14213d"/>
<text x="18" y="26" font-size="14.2" font-weight="700" fill="#ffffff">Split Backs - Z Tight Right - Z Sweep Left</text>
<text x="18" y="45" font-size="11.5" fill="#a9b4c7">RUN  •  Split Backs  •  vs 5-4-2</text>
<rect x="312.4" y="13" width="371.6" height="31" rx="6" fill="#ffffff" fill-opacity="0.12" stroke="#8593ad" stroke-width="1"/>
<text x="498.2" y="34" text-anchor="middle" font-size="14.5" font-weight="700" fill="#ffffff" letter-spacing="0.5">Split Backs Z Tight Right Z Sweep Left</text>
<clipPath id="fieldclip"><rect x="0" y="58" width="702" height="472"/></clipPath>
<g clip-path="url(#fieldclip)"><g transform="translate(-0.0,31.0)">
<rect x="0" y="0" width="702" height="513" fill="#ffffff"/>
<line x1="0" y1="459.0" x2="702" y2="459.0" stroke="#c8cdd6" stroke-width="1"/>
<line x1="0" y1="189.0" x2="702" y2="189.0" stroke="#c8cdd6" stroke-width="1"/>
<line x1="0" y1="324.0" x2="702" y2="324.0" stroke="#3a4150" stroke-width="2" stroke-dasharray="9 6"/>
<ellipse cx="351.0" cy="324.0" rx="9" ry="5.5" fill="#6b4a2b" stroke="#3a2716" stroke-width="1.2"/>
<line x1="228.4" y1="293.2" x2="246.8" y2="311.6" stroke="#9aa2ae" stroke-width="3.6"/><line x1="246.8" y1="293.2" x2="228.4" y2="311.6" stroke="#9aa2ae" stroke-width="3.6"/>
<line x1="277.0" y1="293.2" x2="295.4" y2="311.6" stroke="#9aa2ae" stroke-width="3.6"/><line x1="295.4" y1="293.2" x2="277.0" y2="311.6" stroke="#9aa2ae" stroke-width="3.6"/>
<line x1="341.8" y1="293.2" x2="360.2" y2="311.6" stroke="#9aa2ae" stroke-width="3.6"/><line x1="360.2" y1="293.2" x2="341.8" y2="311.6" stroke="#9aa2ae" stroke-width="3.6"/>
<line x1="406.6" y1="293.2" x2="425.0" y2="311.6" stroke="#9aa2ae" stroke-width="3.6"/><line x1="425.0" y1="293.2" x2="406.6" y2="311.6" stroke="#9aa2ae" stroke-width="3.6"/>
<line x1="455.2" y1="293.2" x2="473.6" y2="311.6" stroke="#9aa2ae" stroke-width="3.6"/><line x1="473.6" y1="293.2" x2="455.2" y2="311.6" stroke="#9aa2ae" stroke-width="3.6"/>
<line x1="196.0" y1="196.0" x2="214.4" y2="214.4" stroke="#9aa2ae" stroke-width="3.6"/><line x1="214.4" y1="196.0" x2="196.0" y2="214.4" stroke="#9aa2ae" stroke-width="3.6"/>
<line x1="301.3" y1="196.0" x2="319.7" y2="214.4" stroke="#9aa2ae" stroke-width="3.6"/><line x1="319.7" y1="196.0" x2="301.3" y2="214.4" stroke="#9aa2ae" stroke-width="3.6"/>
<line x1="382.3" y1="196.0" x2="400.7" y2="214.4" stroke="#9aa2ae" stroke-width="3.6"/><line x1="400.7" y1="196.0" x2="382.3" y2="214.4" stroke="#9aa2ae" stroke-width="3.6"/>
<line x1="487.6" y1="196.0" x2="506.0" y2="214.4" stroke="#9aa2ae" stroke-width="3.6"/><line x1="506.0" y1="196.0" x2="487.6" y2="214.4" stroke="#9aa2ae" stroke-width="3.6"/>
<line x1="252.7" y1="98.8" x2="271.1" y2="117.2" stroke="#9aa2ae" stroke-width="3.6"/><line x1="271.1" y1="98.8" x2="252.7" y2="117.2" stroke="#9aa2ae" stroke-width="3.6"/>
<line x1="430.9" y1="98.8" x2="449.3" y2="117.2" stroke="#9aa2ae" stroke-width="3.6"/><line x1="449.3" y1="98.8" x2="430.9" y2="117.2" stroke="#9aa2ae" stroke-width="3.6"/>
<path d="M237.6,337.5 L237.6,314.6" fill="none" stroke="#14213d" stroke-width="2.4" stroke-linecap="round" stroke-linejoin="round"/>
<line x1="228.4" y1="314.6" x2="246.8" y2="314.6" stroke="#14213d" stroke-width="3.0" stroke-linecap="round"/>
<path d="M275.4,337.5 L282.7,314.0" fill="none" stroke="#14213d" stroke-width="2.4" stroke-linecap="round" stroke-linejoin="round"/>
<line x1="273.9" y1="311.3" x2="291.5" y2="316.7" stroke="#14213d" stroke-width="3.0" stroke-linecap="round"/>
<path d="M313.2,337.5 L310.8,217.4" fill="none" stroke="#14213d" stroke-width="2.4" stroke-linecap="round" stroke-linejoin="round"/>
<line x1="301.6" y1="217.5" x2="319.9" y2="217.2" stroke="#14213d" stroke-width="3.0" stroke-linecap="round"/>
<path d="M351.0,337.5 L351.0,314.6" fill="none" stroke="#14213d" stroke-width="2.4" stroke-linecap="round" stroke-linejoin="round"/>
<line x1="341.8" y1="314.6" x2="360.2" y2="314.6" stroke="#14213d" stroke-width="3.0" stroke-linecap="round"/>
<path d="M388.8,337.5 L391.2,217.4" fill="none" stroke="#14213d" stroke-width="2.4" stroke-linecap="round" stroke-linejoin="round"/>
<line x1="382.1" y1="217.2" x2="400.4" y2="217.5" stroke="#14213d" stroke-width="3.0" stroke-linecap="round"/>
<path d="M426.6,337.5 L419.3,314.0" fill="none" stroke="#14213d" stroke-width="2.4" stroke-linecap="round" stroke-linejoin="round"/>
<line x1="410.5" y1="316.7" x2="428.1" y2="311.3" stroke="#14213d" stroke-width="3.0" stroke-linecap="round"/>
<path d="M464.4,337.5 L464.4,314.6" fill="none" stroke="#14213d" stroke-width="2.4" stroke-linecap="round" stroke-linejoin="round"/>
<line x1="455.2" y1="314.6" x2="473.6" y2="314.6" stroke="#14213d" stroke-width="3.0" stroke-linecap="round"/>
<path d="M502.2,364.5 C484.2,368.1 425.7,381.6 394.2,386.1 C362.7,390.6 346.9,391.5 313.2,391.5 C279.4,391.5 221.4,393.3 191.7,386.1 C162.0,378.9 146.2,361.8 135.0,348.3 C123.8,334.8 126.0,325.8 124.2,305.1 C122.4,284.4 124.2,251.1 124.2,224.1 C124.2,197.1 124.2,156.6 124.2,143.1" fill="none" stroke="#b3001b" stroke-width="4.6" stroke-linecap="round" stroke-linejoin="round"/>
<polygon points="124.2,143.1 130.4,156.9 118.0,156.9" fill="#b3001b"/>
<path d="M351.0,364.5 L361.8,378.0 L383.4,402.3" fill="none" stroke="#14213d" stroke-width="2.4" stroke-linecap="round" stroke-linejoin="round" stroke-dasharray="7 5"/>
<polygon points="383.4,402.3 373.1,397.6 380.0,391.5" fill="#14213d"/>
<path d="M410.4,426.6 C378.9,418.5 254.2,413.4 221.4,378.0 C188.6,342.6 214.9,241.4 213.6,214.1" fill="none" stroke="#14213d" stroke-width="2.4" stroke-linecap="round" stroke-linejoin="round"/>
<line x1="204.4" y1="214.5" x2="222.7" y2="213.7" stroke="#14213d" stroke-width="3.0" stroke-linecap="round"/>
<path d="M291.6,426.6 C279.9,418.5 240.7,395.1 221.4,378.0 C202.0,360.9 168.6,367.0 175.5,324.0 C182.4,281.0 248.4,154.1 263.0,120.2" fill="none" stroke="#14213d" stroke-width="2.4" stroke-linecap="round" stroke-linejoin="round"/>
<line x1="254.5" y1="116.5" x2="271.4" y2="123.8" stroke="#14213d" stroke-width="3.0" stroke-linecap="round"/>

<rect x="224.1" y="324.0" width="27.0" height="27.0" rx="3" fill="#ffffff" stroke="#14213d" stroke-width="2.6"/>
<text x="237.6" y="342.0" text-anchor="middle" font-size="13" font-weight="700" fill="#14213d">X</text>
<rect x="261.9" y="324.0" width="27.0" height="27.0" rx="3" fill="#ffffff" stroke="#14213d" stroke-width="2.6"/>
<text x="275.4" y="342.0" text-anchor="middle" font-size="13" font-weight="700" fill="#14213d">LT</text>
<rect x="299.7" y="324.0" width="27.0" height="27.0" rx="3" fill="#ffffff" stroke="#14213d" stroke-width="2.6"/>
<text x="313.2" y="342.0" text-anchor="middle" font-size="13" font-weight="700" fill="#14213d">LG</text>
<rect x="337.5" y="324.0" width="27.0" height="27.0" rx="3" fill="#ffffff" stroke="#14213d" stroke-width="2.6"/>
<text x="351.0" y="342.0" text-anchor="middle" font-size="13" font-weight="700" fill="#14213d">C</text>
<rect x="375.3" y="324.0" width="27.0" height="27.0" rx="3" fill="#ffffff" stroke="#14213d" stroke-width="2.6"/>
<text x="388.8" y="342.0" text-anchor="middle" font-size="13" font-weight="700" fill="#14213d">RG</text>
<rect x="413.1" y="324.0" width="27.0" height="27.0" rx="3" fill="#ffffff" stroke="#14213d" stroke-width="2.6"/>
<text x="426.6" y="342.0" text-anchor="middle" font-size="13" font-weight="700" fill="#14213d">RT</text>
<rect x="450.9" y="324.0" width="27.0" height="27.0" rx="3" fill="#ffffff" stroke="#14213d" stroke-width="2.6"/>
<text x="464.4" y="342.0" text-anchor="middle" font-size="13" font-weight="700" fill="#14213d">Y</text>
<circle cx="502.2" cy="364.5" r="13.5" fill="#ffffff" stroke="#b3001b" stroke-width="2.6"/>
<text x="502.2" y="369.0" text-anchor="middle" font-size="13" font-weight="700" fill="#b3001b">Z</text>
<circle cx="351.0" cy="364.5" r="13.5" fill="#ffffff" stroke="#14213d" stroke-width="2.6"/>
<text x="351.0" y="369.0" text-anchor="middle" font-size="13" font-weight="700" fill="#14213d">QB</text>
<circle cx="291.6" cy="426.6" r="13.5" fill="#ffffff" stroke="#14213d" stroke-width="2.6"/>
<text x="291.6" y="431.1" text-anchor="middle" font-size="13" font-weight="700" fill="#14213d">TB</text>
<circle cx="410.4" cy="426.6" r="13.5" fill="#ffffff" stroke="#14213d" stroke-width="2.6"/>
<text x="410.4" y="431.1" text-anchor="middle" font-size="13" font-weight="700" fill="#14213d">FB</text>
<text x="237.6" y="284.5" text-anchor="middle" font-size="12.5" fill="#9aa2ae" font-weight="600" stroke="#fff" stroke-width="3" paint-order="stroke">LDE</text>
<text x="286.2" y="284.5" text-anchor="middle" font-size="12.5" fill="#9aa2ae" font-weight="600" stroke="#fff" stroke-width="3" paint-order="stroke">LDT</text>
<text x="351.0" y="284.5" text-anchor="middle" font-size="12.5" fill="#9aa2ae" font-weight="600" stroke="#fff" stroke-width="3" paint-order="stroke">NT</text>
<text x="415.8" y="284.5" text-anchor="middle" font-size="12.5" fill="#9aa2ae" font-weight="600" stroke="#fff" stroke-width="3" paint-order="stroke">RDT</text>
<text x="464.4" y="284.5" text-anchor="middle" font-size="12.5" fill="#9aa2ae" font-weight="600" stroke="#fff" stroke-width="3" paint-order="stroke">RDE</text>
<text x="205.2" y="187.3" text-anchor="middle" font-size="12.5" fill="#9aa2ae" font-weight="600" stroke="#fff" stroke-width="3" paint-order="stroke">LOLB</text>
<text x="310.5" y="187.3" text-anchor="middle" font-size="12.5" fill="#9aa2ae" font-weight="600" stroke="#fff" stroke-width="3" paint-order="stroke">LILB</text>
<text x="391.5" y="187.3" text-anchor="middle" font-size="12.5" fill="#9aa2ae" font-weight="600" stroke="#fff" stroke-width="3" paint-order="stroke">RILB</text>
<text x="496.8" y="187.3" text-anchor="middle" font-size="12.5" fill="#9aa2ae" font-weight="600" stroke="#fff" stroke-width="3" paint-order="stroke">ROLB</text>
<text x="261.9" y="90.2" text-anchor="middle" font-size="12.5" fill="#9aa2ae" font-weight="600" stroke="#fff" stroke-width="3" paint-order="stroke">LS</text>
<text x="440.1" y="90.2" text-anchor="middle" font-size="12.5" fill="#9aa2ae" font-weight="600" stroke="#fff" stroke-width="3" paint-order="stroke">RS</text>
<rect x="599.6" y="35.0" width="94.4" height="52.0" rx="8" fill="#ffffff" stroke="#111318" stroke-width="3"/><text x="646.8" y="75.0" text-anchor="middle" font-size="40" font-weight="800" fill="#111318">#23</text>
</g></g>
<line x1="18" y1="540" x2="684" y2="540" stroke="#c8cdd6" stroke-width="1"/>
<text x="18" y="560" font-size="11" font-weight="700" fill="#5b6472" letter-spacing="1">ASSIGNMENTS</text>
<text x="18" y="578" font-size="12" font-weight="700" fill="#111318">X</text>
<text x="52" y="578" font-size="12" fill="#111318">Defensive end head up on you. Turn him inside.</text>
<text x="52" y="596" font-size="12" fill="#111318">The ball goes around behind you.</text>
<text x="18" y="612" font-size="12" font-weight="700" fill="#111318">LT</text>
<text x="52" y="612" font-size="12" fill="#111318">O — your gap is empty, so take the defensive</text>
<text x="52" y="630" font-size="12" fill="#111318">tackle on you. Hands inside, pads under his,</text>
<text x="52" y="646" font-size="12" fill="#111318">drive him back.</text>
<text x="18" y="664" font-size="12" font-weight="700" fill="#111318">LG</text>
<text x="52" y="664" font-size="12" fill="#111318">D — nothing in your gap and nobody on you. Go</text>
<text x="52" y="680" font-size="12" fill="#111318">downfield and get the left inside linebacker.</text>
<text x="18" y="698" font-size="12" font-weight="700" fill="#111318">C</text>
<text x="52" y="698" font-size="12" fill="#111318">O — your gap is empty, so take the nose on</text>
<text x="52" y="714" font-size="12" fill="#111318">you. Hands inside, pads under his, drive him</text>
<text x="52" y="732" font-size="12" fill="#111318">back.</text>
<text x="18" y="748" font-size="12" font-weight="700" fill="#111318">RG</text>
<text x="52" y="748" font-size="12" fill="#111318">D — nothing in your gap and nobody on you. Go</text>
<text x="52" y="766" font-size="12" fill="#111318">downfield and get the right inside linebacker.</text>
<text x="18" y="782" font-size="12" font-weight="700" fill="#111318">RT</text>
<text x="52" y="782" font-size="12" fill="#111318">O — your gap is empty, so take the defensive</text>
<text x="52" y="800" font-size="12" fill="#111318">tackle on you. Hands inside, pads under his,</text>
<text x="52" y="816" font-size="12" fill="#111318">drive him back.</text>
<text x="351" y="578" font-size="12" font-weight="700" fill="#111318">Y</text>
<text x="385" y="578" font-size="12" fill="#111318">Defensive end head up on you. Cut him off —</text>
<text x="385" y="596" font-size="12" fill="#111318">get between him and the ball.</text>
<text x="351" y="612" font-size="12" font-weight="700" fill="#111318">Z</text>
<text x="385" y="612" font-size="12" fill="#111318">At the snap run flat across the backfield,</text>
<text x="385" y="630" font-size="12" fill="#111318">take the handoff at full speed and get to the</text>
<text x="385" y="646" font-size="12" fill="#111318">left edge. Turn up in the alley behind the</text>
<text x="385" y="664" font-size="12" fill="#111318">tailback.</text>
<text x="351" y="680" font-size="12" font-weight="700" fill="#111318">QB</text>
<text x="385" y="680" font-size="12" fill="#111318">Hand the ball to the slot as he runs past you,</text>
<text x="385" y="698" font-size="12" fill="#111318">then fake the handoff to the fullback going</text>
<text x="385" y="714" font-size="12" fill="#111318">right.</text>
<text x="351" y="732" font-size="12" font-weight="700" fill="#111318">FB</text>
<text x="385" y="732" font-size="12" fill="#111318">Bubble around the X, then block the left</text>
<text x="385" y="748" font-size="12" fill="#111318">outside linebacker.</text>
<text x="351" y="766" font-size="12" font-weight="700" fill="#111318">TB</text>
<text x="385" y="766" font-size="12" fill="#111318">Bubble around the X, then block the left</text>
<text x="385" y="782" font-size="12" fill="#111318">safety.</text>
</svg>