<svg xmlns="http://www.w3.org/2000/svg" width="621" height="894" viewBox="0 0 621 894" font-family="Segoe UI, Helvetica, Arial, sans-serif">
<rect width="100%" height="100%" fill="#ffffff"/>
<rect x="0" y="0" width="621" height="58" fill="#14213d"/>
<text x="18" y="26" font-size="17.1" font-weight="700" fill="#ffffff">Split Backs - Slot Right - 38 Toss</text>
<text x="18" y="45" font-size="11.5" fill="#a9b4c7">RUN  •  Split Backs  •  vs 4-4</text>
<rect x="305.0" y="13" width="298.0" height="31" rx="6" fill="#ffffff" fill-opacity="0.12" stroke="#8593ad" stroke-width="1"/>
<text x="454.0" y="34" text-anchor="middle" font-size="14.5" font-weight="700" fill="#ffffff" letter-spacing="0.5">Split Backs Slot Right 38 Toss</text>
<clipPath id="fieldclip"><rect x="0" y="58" width="621" height="472"/></clipPath>
<g clip-path="url(#fieldclip)"><g transform="translate(-40.5,31.0)">
<rect x="0" y="0" width="702" height="513" fill="#ffffff"/>
<line x1="0" y1="459.0" x2="702" y2="459.0" stroke="#c8cdd6" stroke-width="1"/>
<line x1="0" y1="189.0" x2="702" y2="189.0" stroke="#c8cdd6" stroke-width="1"/>
<line x1="0" y1="324.0" x2="702" y2="324.0" stroke="#3a4150" stroke-width="2" stroke-dasharray="9 6"/>
<ellipse cx="351.0" cy="324.0" rx="9" ry="5.5" fill="#6b4a2b" stroke="#3a2716" stroke-width="1.2"/>
<line x1="244.6" y1="293.2" x2="263.0" y2="311.6" stroke="#9aa2ae" stroke-width="3.6"/><line x1="263.0" y1="293.2" x2="244.6" y2="311.6" stroke="#9aa2ae" stroke-width="3.6"/>
<text x="253.8" y="284.5" text-anchor="middle" font-size="12.5" fill="#9aa2ae" font-weight="600">LDE</text>
<line x1="304.0" y1="293.2" x2="322.4" y2="311.6" stroke="#9aa2ae" stroke-width="3.6"/><line x1="322.4" y1="293.2" x2="304.0" y2="311.6" stroke="#9aa2ae" stroke-width="3.6"/>
<text x="313.2" y="284.5" text-anchor="middle" font-size="12.5" fill="#9aa2ae" font-weight="600">LDG</text>
<line x1="379.6" y1="293.2" x2="398.0" y2="311.6" stroke="#9aa2ae" stroke-width="3.6"/><line x1="398.0" y1="293.2" x2="379.6" y2="311.6" stroke="#9aa2ae" stroke-width="3.6"/>
<text x="388.8" y="284.5" text-anchor="middle" font-size="12.5" fill="#9aa2ae" font-weight="600">RDG</text>
<line x1="439.0" y1="293.2" x2="457.4" y2="311.6" stroke="#9aa2ae" stroke-width="3.6"/><line x1="457.4" y1="293.2" x2="439.0" y2="311.6" stroke="#9aa2ae" stroke-width="3.6"/>
<text x="448.2" y="284.5" text-anchor="middle" font-size="12.5" fill="#9aa2ae" font-weight="600">RDE</text>
<line x1="217.6" y1="196.0" x2="236.0" y2="214.4" stroke="#9aa2ae" stroke-width="3.6"/><line x1="236.0" y1="196.0" x2="217.6" y2="214.4" stroke="#9aa2ae" stroke-width="3.6"/>
<text x="226.8" y="187.3" text-anchor="middle" font-size="12.5" fill="#9aa2ae" font-weight="600">LOLB</text>
<line x1="274.3" y1="196.0" x2="292.7" y2="214.4" stroke="#9aa2ae" stroke-width="3.6"/><line x1="292.7" y1="196.0" x2="274.3" y2="214.4" stroke="#9aa2ae" stroke-width="3.6"/>
<text x="283.5" y="187.3" text-anchor="middle" font-size="12.5" fill="#9aa2ae" font-weight="600">LILB</text>
<line x1="409.3" y1="196.0" x2="427.7" y2="214.4" stroke="#9aa2ae" stroke-width="3.6"/><line x1="427.7" y1="196.0" x2="409.3" y2="214.4" stroke="#9aa2ae" stroke-width="3.6"/>
<text x="418.5" y="187.3" text-anchor="middle" font-size="12.5" fill="#9aa2ae" font-weight="600">RILB</text>
<line x1="466.0" y1="196.0" x2="484.4" y2="214.4" stroke="#9aa2ae" stroke-width="3.6"/><line x1="484.4" y1="196.0" x2="466.0" y2="214.4" stroke="#9aa2ae" stroke-width="3.6"/>
<text x="475.2" y="187.3" text-anchor="middle" font-size="12.5" fill="#9aa2ae" font-weight="600">ROLB</text>
<line x1="85.3" y1="196.0" x2="103.7" y2="214.4" stroke="#9aa2ae" stroke-width="3.6"/><line x1="103.7" y1="196.0" x2="85.3" y2="214.4" stroke="#9aa2ae" stroke-width="3.6"/>
<text x="94.5" y="187.3" text-anchor="middle" font-size="12.5" fill="#9aa2ae" font-weight="600">LC</text>
<line x1="598.3" y1="196.0" x2="616.7" y2="214.4" stroke="#9aa2ae" stroke-width="3.6"/><line x1="616.7" y1="196.0" x2="598.3" y2="214.4" stroke="#9aa2ae" stroke-width="3.6"/>
<text x="607.5" y="187.3" text-anchor="middle" font-size="12.5" fill="#9aa2ae" font-weight="600">RC</text>
<line x1="341.8" y1="98.8" x2="360.2" y2="117.2" stroke="#9aa2ae" stroke-width="3.6"/><line x1="360.2" y1="98.8" x2="341.8" y2="117.2" stroke="#9aa2ae" stroke-width="3.6"/>
<text x="351.0" y="90.2" text-anchor="middle" font-size="12.5" fill="#9aa2ae" font-weight="600">FS</text>
<path d="M237.6,337.5 L248.7,313.5" fill="none" stroke="#14213d" stroke-width="2.4" stroke-linecap="round" stroke-linejoin="round"/>
<line x1="240.3" y1="309.6" x2="257.0" y2="317.3" stroke="#14213d" stroke-width="3.0" stroke-linecap="round"/>
<path d="M275.4,337.5 L282.7,217.4" fill="none" stroke="#14213d" stroke-width="2.4" stroke-linecap="round" stroke-linejoin="round"/>
<line x1="273.5" y1="216.8" x2="291.9" y2="217.9" stroke="#14213d" stroke-width="3.0" stroke-linecap="round"/>
<path d="M313.2,337.5 L313.2,314.6" fill="none" stroke="#14213d" stroke-width="2.4" stroke-linecap="round" stroke-linejoin="round"/>
<line x1="304.0" y1="314.6" x2="322.4" y2="314.6" stroke="#14213d" stroke-width="3.0" stroke-linecap="round"/>
<path d="M351.0,337.5 L379.9,310.8 L413.1,216.0" fill="none" stroke="#14213d" stroke-width="2.4" stroke-linecap="round" stroke-linejoin="round"/>
<line x1="404.4" y1="213.0" x2="421.8" y2="219.0" stroke="#14213d" stroke-width="3.0" stroke-linecap="round"/>
<path d="M388.8,337.5 L388.8,314.6" fill="none" stroke="#14213d" stroke-width="2.4" stroke-linecap="round" stroke-linejoin="round"/>
<line x1="379.6" y1="314.6" x2="398.0" y2="314.6" stroke="#14213d" stroke-width="3.0" stroke-linecap="round"/>
<path d="M426.6,337.5 L419.3,217.4" fill="none" stroke="#14213d" stroke-width="2.4" stroke-linecap="round" stroke-linejoin="round"/>
<line x1="410.1" y1="217.9" x2="428.5" y2="216.8" stroke="#14213d" stroke-width="3.0" stroke-linecap="round"/>
<path d="M464.4,337.5 L453.3,313.5" fill="none" stroke="#14213d" stroke-width="2.4" stroke-linecap="round" stroke-linejoin="round"/>
<line x1="445.0" y1="317.3" x2="461.7" y2="309.6" stroke="#14213d" stroke-width="3.0" stroke-linecap="round"/>
<path d="M502.2,364.5 L600.8,215.5" fill="none" stroke="#14213d" stroke-width="2.4" stroke-linecap="round" stroke-linejoin="round"/>
<line x1="593.1" y1="210.4" x2="608.4" y2="220.5" stroke="#14213d" stroke-width="3.0" stroke-linecap="round"/>
<path d="M351.0,364.5 L329.4,372.6 L226.8,367.2" fill="none" stroke="#14213d" stroke-width="2.4" stroke-linecap="round" stroke-linejoin="round" stroke-dasharray="0.1 7"/>
<polygon points="226.8,367.2 237.4,363.1 236.9,372.4" fill="#14213d"/>
<path d="M291.6,426.6 C306.9,428.4 344.7,436.5 383.4,437.4 C422.1,438.3 497.7,441.0 523.8,432.0 C549.9,423.0 537.3,403.2 540.0,383.4 C542.7,363.6 540.0,335.7 540.0,313.2 C540.0,290.7 540.0,259.2 540.0,248.4" fill="none" stroke="#b3001b" stroke-width="4.6" stroke-linecap="round" stroke-linejoin="round"/>
<polygon points="540.0,248.4 546.2,262.2 533.8,262.2" fill="#b3001b"/>
<path d="M410.4,426.6 C425.7,417.6 486.0,391.5 502.2,372.6 C518.4,353.7 512.7,339.2 507.6,313.2 C502.5,287.2 477.7,232.9 471.7,216.8" fill="none" stroke="#14213d" stroke-width="2.4" stroke-linecap="round" stroke-linejoin="round"/>
<line x1="463.1" y1="220.0" x2="480.3" y2="213.6" stroke="#14213d" stroke-width="3.0" stroke-linecap="round"/>
<path d="M351.0,364.5 L383.4,437.4" fill="none" stroke="#b3001b" stroke-width="3.2" stroke-linecap="round" stroke-linejoin="round" stroke-dasharray="0.1 7"/>
<rect x="224.1" y="324.0" width="27.0" height="27.0" rx="3" fill="#ffffff" stroke="#14213d" stroke-width="2.6"/>
<text x="237.6" y="342.0" text-anchor="middle" font-size="13" font-weight="700" fill="#14213d">LTE</text>
<rect x="261.9" y="324.0" width="27.0" height="27.0" rx="3" fill="#ffffff" stroke="#14213d" stroke-width="2.6"/>
<text x="275.4" y="342.0" text-anchor="middle" font-size="13" font-weight="700" fill="#14213d">LT</text>
<rect x="299.7" y="324.0" width="27.0" height="27.0" rx="3" fill="#ffffff" stroke="#14213d" stroke-width="2.6"/>
<text x="313.2" y="342.0" text-anchor="middle" font-size="13" font-weight="700" fill="#14213d">LG</text>
<rect x="337.5" y="324.0" width="27.0" height="27.0" rx="3" fill="#ffffff" stroke="#14213d" stroke-width="2.6"/>
<text x="351.0" y="342.0" text-anchor="middle" font-size="13" font-weight="700" fill="#14213d">C</text>
<rect x="375.3" y="324.0" width="27.0" height="27.0" rx="3" fill="#ffffff" stroke="#14213d" stroke-width="2.6"/>
<text x="388.8" y="342.0" text-anchor="middle" font-size="13" font-weight="700" fill="#14213d">RG</text>
<rect x="413.1" y="324.0" width="27.0" height="27.0" rx="3" fill="#ffffff" stroke="#14213d" stroke-width="2.6"/>
<text x="426.6" y="342.0" text-anchor="middle" font-size="13" font-weight="700" fill="#14213d">RT</text>
<rect x="450.9" y="324.0" width="27.0" height="27.0" rx="3" fill="#ffffff" stroke="#14213d" stroke-width="2.6"/>
<text x="464.4" y="342.0" text-anchor="middle" font-size="13" font-weight="700" fill="#14213d">RTE</text>
<circle cx="502.2" cy="364.5" r="13.5" fill="#ffffff" stroke="#14213d" stroke-width="2.6"/>
<text x="502.2" y="369.0" text-anchor="middle" font-size="13" font-weight="700" fill="#14213d">SL</text>
<circle cx="351.0" cy="364.5" r="13.5" fill="#ffffff" stroke="#14213d" stroke-width="2.6"/>
<text x="351.0" y="369.0" text-anchor="middle" font-size="13" font-weight="700" fill="#14213d">QB</text>
<circle cx="291.6" cy="426.6" r="13.5" fill="#ffffff" stroke="#b3001b" stroke-width="2.6"/>
<text x="291.6" y="431.1" text-anchor="middle" font-size="13" font-weight="700" fill="#b3001b">LH</text>
<circle cx="410.4" cy="426.6" r="13.5" fill="#ffffff" stroke="#14213d" stroke-width="2.6"/>
<text x="410.4" y="431.1" text-anchor="middle" font-size="13" font-weight="700" fill="#14213d">RH</text>
<rect x="559.1" y="35.0" width="94.4" height="52.0" rx="8" fill="#ffffff" stroke="#111318" stroke-width="3"/><text x="606.3" y="75.0" text-anchor="middle" font-size="40" font-weight="800" fill="#111318">#17</text>
</g></g>
<line x1="18" y1="540" x2="603" y2="540" stroke="#c8cdd6" stroke-width="1"/>
<text x="18" y="560" font-size="11" font-weight="700" fill="#5b6472" letter-spacing="1">ASSIGNMENTS</text>
<text x="18" y="578" font-size="12" font-weight="700" fill="#111318">LTE</text>
<text x="52" y="578" font-size="12" fill="#111318">Block the left defensive end.</text>
<text x="18" y="596" font-size="12" font-weight="700" fill="#111318">LT</text>
<text x="52" y="596" font-size="12" fill="#111318">Block the left inside linebacker.</text>
<text x="18" y="612" font-size="12" font-weight="700" fill="#111318">LG</text>
<text x="52" y="612" font-size="12" fill="#111318">Block the left defensive guard.</text>
<text x="18" y="630" font-size="12" font-weight="700" fill="#111318">C</text>
<text x="52" y="630" font-size="12" fill="#111318">Help on the right defensive guard, then</text>
<text x="52" y="646" font-size="12" fill="#111318">block the right inside linebacker.</text>
<text x="18" y="664" font-size="12" font-weight="700" fill="#111318">RG</text>
<text x="52" y="664" font-size="12" fill="#111318">Block the right defensive guard.</text>
<text x="18" y="680" font-size="12" font-weight="700" fill="#111318">RT</text>
<text x="52" y="680" font-size="12" fill="#111318">Block the right inside linebacker.</text>
<text x="310" y="578" font-size="12" font-weight="700" fill="#111318">RTE</text>
<text x="344" y="578" font-size="12" fill="#111318">Block the right defensive end.</text>
<text x="310" y="596" font-size="12" font-weight="700" fill="#111318">SL</text>
<text x="344" y="596" font-size="12" fill="#111318">Block the right corner.</text>
<text x="310" y="612" font-size="12" font-weight="700" fill="#111318">QB</text>
<text x="344" y="612" font-size="12" fill="#111318">Quick pitch to the left halfback, then</text>
<text x="344" y="630" font-size="12" fill="#111318">run the other way, to the left, like</text>
<text x="344" y="646" font-size="12" fill="#111318">you still have it.</text>
<text x="310" y="664" font-size="12" font-weight="700" fill="#111318">LH</text>
<text x="344" y="664" font-size="12" fill="#111318">Run flat, outside and behind the</text>
<text x="344" y="680" font-size="12" fill="#111318">quarterback, and catch the pitch on the</text>
<text x="344" y="698" font-size="12" fill="#111318">run. Ahead of him is a fumble.</text>
<text x="310" y="714" font-size="12" font-weight="700" fill="#111318">RH</text>
<text x="344" y="714" font-size="12" fill="#111318">Bubble around the right tight end, then</text>
<text x="344" y="732" font-size="12" fill="#111318">block the right outside linebacker.</text>
<line x1="18" y1="738" x2="603" y2="738" stroke="#c8cdd6" stroke-width="1"/>
<text x="18" y="756" font-size="11" font-weight="700" fill="#5b6472" letter-spacing="1">COACHING POINTS</text>
<text x="18" y="776" font-size="12" fill="#111318">The pitch goes early. A quarterback who waits to be tackled first will pitch it on</text>
<text x="18" y="794" font-size="12" fill="#111318">the ground.</text>
<text x="18" y="810" font-size="12" fill="#111318">This is not a read at this age — tell him before the snap that he is pitching it.</text>
<text x="18" y="828" font-size="12" fill="#111318">Everything depends on the edge being blocked, and out here the split man does it —</text>
<text x="18" y="844" font-size="12" fill="#111318">which is what frees both backs to fake and lead. Drill him on beating that man to the</text>
<text x="18" y="862" font-size="12" fill="#111318">spot without holding.</text>
</svg>