<svg xmlns="http://www.w3.org/2000/svg" width="327" height="151" viewBox="207 306 327 151" font-family="Segoe UI, Helvetica, Arial, sans-serif" role="img">
<title>Split Backs — alignment</title>
<rect x="0" y="0" width="702" height="513" fill="#ffffff"/>
<line x1="0" y1="459.0" x2="702" y2="459.0" stroke="#c8cdd6" stroke-width="1"/>
<line x1="0" y1="189.0" x2="702" y2="189.0" stroke="#c8cdd6" stroke-width="1"/>
<line x1="0" y1="324.0" x2="702" y2="324.0" stroke="#3a4150" stroke-width="2" stroke-dasharray="9 6"/>
<ellipse cx="351.0" cy="324.0" rx="9" ry="5.5" fill="#6b4a2b" stroke="#3a2716" stroke-width="1.2"/>
<rect x="224.1" y="324.0" width="27.0" height="27.0" rx="3" fill="#ffffff" stroke="#14213d" stroke-width="2.6"/>
<text x="237.6" y="342.0" text-anchor="middle" font-size="13" font-weight="700" fill="#14213d">X</text>
<rect x="261.9" y="324.0" width="27.0" height="27.0" rx="3" fill="#ffffff" stroke="#14213d" stroke-width="2.6"/>
<text x="275.4" y="342.0" text-anchor="middle" font-size="13" font-weight="700" fill="#14213d">LT</text>
<rect x="299.7" y="324.0" width="27.0" height="27.0" rx="3" fill="#ffffff" stroke="#14213d" stroke-width="2.6"/>
<text x="313.2" y="342.0" text-anchor="middle" font-size="13" font-weight="700" fill="#14213d">LG</text>
<rect x="337.5" y="324.0" width="27.0" height="27.0" rx="3" fill="#ffffff" stroke="#14213d" stroke-width="2.6"/>
<text x="351.0" y="342.0" text-anchor="middle" font-size="13" font-weight="700" fill="#14213d">C</text>
<rect x="375.3" y="324.0" width="27.0" height="27.0" rx="3" fill="#ffffff" stroke="#14213d" stroke-width="2.6"/>
<text x="388.8" y="342.0" text-anchor="middle" font-size="13" font-weight="700" fill="#14213d">RG</text>
<rect x="413.1" y="324.0" width="27.0" height="27.0" rx="3" fill="#ffffff" stroke="#14213d" stroke-width="2.6"/>
<text x="426.6" y="342.0" text-anchor="middle" font-size="13" font-weight="700" fill="#14213d">RT</text>
<rect x="450.9" y="324.0" width="27.0" height="27.0" rx="3" fill="#ffffff" stroke="#14213d" stroke-width="2.6"/>
<text x="464.4" y="342.0" text-anchor="middle" font-size="13" font-weight="700" fill="#14213d">Y</text>
<circle cx="502.2" cy="364.5" r="13.5" fill="#ffffff" stroke="#14213d" stroke-width="2.6"/>
<text x="502.2" y="369.0" text-anchor="middle" font-size="13" font-weight="700" fill="#14213d">Z</text>
<circle cx="351.0" cy="364.5" r="13.5" fill="#ffffff" stroke="#14213d" stroke-width="2.6"/>
<text x="351.0" y="369.0" text-anchor="middle" font-size="13" font-weight="700" fill="#14213d">QB</text>
<circle cx="291.6" cy="426.6" r="13.5" fill="#ffffff" stroke="#14213d" stroke-width="2.6"/>
<text x="291.6" y="431.1" text-anchor="middle" font-size="13" font-weight="700" fill="#14213d">LH</text>
<circle cx="410.4" cy="426.6" r="13.5" fill="#ffffff" stroke="#14213d" stroke-width="2.6"/>
<text x="410.4" y="431.1" text-anchor="middle" font-size="13" font-weight="700" fill="#14213d">RH</text>
</svg>